<svg width="24" height="24" viewBox="0 0 24 24" fill="none" xmlns="http://www.w3.org/2000/svg">
<g opacity="0.86">
<path d="M17.901 17.39C17.641 16.59 16.891 16 16.001 16H15.001V13C15.001 12.7348 14.8956 12.4804 14.7081 12.2929C14.5205 12.1054 14.2662 12 14.001 12H8.00098V10H10.001C10.2662 10 10.5205 9.89464 10.7081 9.7071C10.8956 9.51957 11.001 9.26521 11.001 9V7H13.001C13.5314 7 14.0401 6.78928 14.4152 6.41421C14.7903 6.03914 15.001 5.53043 15.001 5V4.59C17.931 5.77 20.001 8.64 20.001 12C20.001 14.08 19.201 15.97 17.901 17.39ZM11.001 19.93C7.05098 19.44 4.00098 16.08 4.00098 12C4.00098 11.38 4.08098 10.78 4.21098 10.21L9.00098 15V16C9.00098 16.5304 9.21169 17.0391 9.58676 17.4142C9.96184 17.7893 10.4705 18 11.001 18V19.93ZM12.001 2C10.6878 2 9.3874 2.25866 8.17414 2.7612C6.96089 3.26375 5.85849 4.00035 4.92991 4.92893C3.05455 6.80429 2.00098 9.34783 2.00098 12C2.00098 14.6522 3.05455 17.1957 4.92991 19.0711C5.85849 19.9996 6.96089 20.7362 8.17414 21.2388C9.3874 21.7413 10.6878 22 12.001 22C14.6531 22 17.1967 20.9464 19.072 19.0711C20.9474 17.1957 22.001 14.6522 22.001 12C22.001 10.6868 21.7423 9.38642 21.2398 8.17316C20.7372 6.95991 20.0006 5.85752 19.072 4.92893C18.1435 4.00035 17.0411 3.26375 15.8278 2.7612C14.6146 2.25866 13.3142 2 12.001 2Z" fill="#181818"/>
</g>
</svg>
