<svg width="24" height="24" viewBox="0 0 24 24" fill="none" xmlns="http://www.w3.org/2000/svg">
<path fill-rule="evenodd" clip-rule="evenodd" d="M5.14276 4.3199H18.857C19.3115 4.3199 19.6799 4.68831 19.6799 5.14276V18.857C19.6799 19.3115 19.3115 19.6799 18.857 19.6799H5.14276C4.68831 19.6799 4.3199 19.3115 4.3199 18.857V5.14276C4.3199 4.68831 4.68831 4.3199 5.14276 4.3199ZM2.3999 5.14276C2.3999 3.62792 3.62792 2.3999 5.14276 2.3999H18.857C20.3719 2.3999 21.5999 3.62792 21.5999 5.14276V18.857C21.5999 20.3719 20.3719 21.5999 18.857 21.5999H5.14276C3.62792 21.5999 2.3999 20.3719 2.3999 18.857V5.14276ZM11.7653 7.57956C11.9368 7.52533 12.2042 7.48917 12.5675 7.47109V7.1999C12.0125 7.22702 11.2204 7.24058 10.1913 7.24058C9.11161 7.24058 8.3145 7.22702 7.7999 7.1999V7.47109C8.13287 7.48917 8.37504 7.52533 8.52639 7.57956C8.68783 7.6338 8.79378 7.73776 8.84423 7.89143C8.90477 8.0451 8.93504 8.29369 8.93504 8.63719V15.3626C8.93504 15.7061 8.90477 15.9547 8.84423 16.1084C8.79378 16.262 8.68783 16.366 8.52639 16.4202C8.37504 16.4745 8.13287 16.5106 7.7999 16.5287V16.7999C8.88963 16.7728 10.5343 16.7592 12.734 16.7592C14.3585 16.7592 15.5138 16.7728 16.1999 16.7999C16.1293 16.2394 16.094 15.5253 16.094 14.6575C16.094 14.1694 16.1091 13.7717 16.1394 13.4643H15.7913C15.6399 14.3773 15.312 15.1095 14.8075 15.6609C14.3131 16.2123 13.7228 16.488 13.0367 16.488H12.295C12.0125 16.488 11.8057 16.4654 11.6745 16.4202C11.5534 16.375 11.4676 16.2892 11.4172 16.1626C11.3667 16.027 11.3415 15.8146 11.3415 15.5253V8.63719C11.3415 8.29369 11.3718 8.0451 11.4323 7.89143C11.4929 7.73776 11.6039 7.6338 11.7653 7.57956Z" fill="#181818"/>
</svg>
