<svg width="36" height="36" viewBox="0 0 36 36" fill="none" xmlns="http://www.w3.org/2000/svg">
<path fill-rule="evenodd" clip-rule="evenodd" d="M7.71438 6.47998H28.2858C28.9675 6.47998 29.5201 7.03258 29.5201 7.71426V28.2857C29.5201 28.9674 28.9675 29.52 28.2858 29.52H7.71438C7.03271 29.52 6.4801 28.9674 6.4801 28.2857V7.71426C6.4801 7.03258 7.03271 6.47998 7.71438 6.47998ZM3.6001 7.71426C3.6001 5.442 5.44213 3.59998 7.71438 3.59998H28.2858C30.5581 3.59998 32.4001 5.442 32.4001 7.71426V28.2857C32.4001 30.5579 30.5581 32.4 28.2858 32.4H7.71438C5.44213 32.4 3.6001 30.5579 3.6001 28.2857V7.71426ZM17.6482 11.3695C17.9055 11.2881 18.3066 11.2339 18.8514 11.2068V10.8C18.019 10.8407 16.8309 10.861 15.2871 10.861C13.6677 10.861 12.472 10.8407 11.7001 10.8V11.2068C12.1996 11.2339 12.5628 11.2881 12.7898 11.3695C13.032 11.4508 13.1909 11.6068 13.2666 11.8373C13.3574 12.0678 13.4028 12.4407 13.4028 12.9559V23.044C13.4028 23.5593 13.3574 23.9322 13.2666 24.1627C13.1909 24.3932 13.032 24.5491 12.7898 24.6305C12.5628 24.7118 12.1996 24.7661 11.7001 24.7932V25.2C13.3347 25.1593 15.8017 25.139 19.1012 25.139C21.5379 25.139 23.2709 25.1593 24.3001 25.2C24.1942 24.3593 24.1412 23.2881 24.1412 21.9864C24.1412 21.2542 24.1639 20.6576 24.2093 20.1966H23.6871C23.4601 21.5661 22.9682 22.6644 22.2114 23.4915C21.4698 24.3186 20.5844 24.7322 19.5552 24.7322H18.4428C18.019 24.7322 17.7087 24.6983 17.512 24.6305C17.3304 24.5627 17.2017 24.4339 17.126 24.244C17.0504 24.0407 17.0125 23.722 17.0125 23.2881V12.9559C17.0125 12.4407 17.0579 12.0678 17.1487 11.8373C17.2396 11.6068 17.406 11.4508 17.6482 11.3695Z" fill="#00208F"/>
</svg>