<svg width="24" height="24" viewBox="0 0 24 24" fill="none" xmlns="http://www.w3.org/2000/svg">
<path d="M20.5711 5C19.7771 6.01165 19.2243 7.00699 18.913 7.98601C18.6171 8.96503 18.4692 9.8951 18.4692 10.7762C18.9986 10.7762 19.5357 10.817 20.0807 10.8986C20.6256 10.9802 21.1083 11.1107 21.5287 11.2902C21.9646 11.4697 22.3149 11.6981 22.5796 11.9755C22.8599 12.2529 23 12.5874 23 12.979V16.5524C23 16.9767 22.8599 17.3438 22.5796 17.6538C22.3149 17.9639 21.9646 18.2168 21.5287 18.4126C21.0927 18.6084 20.6023 18.7552 20.0573 18.8531C19.5124 18.951 18.9674 19 18.4225 19C17.8464 19 17.2781 18.951 16.7176 18.8531C16.1727 18.7552 15.6822 18.6084 15.2463 18.4126C14.8103 18.2168 14.46 17.9639 14.1953 17.6538C13.9306 17.3438 13.7983 16.9767 13.7983 16.5524V14.4965C13.7983 14.0396 13.8217 13.4114 13.8684 12.6119C13.9306 11.796 14.063 10.9312 14.2654 10.0175C14.4834 9.10373 14.787 8.19814 15.1762 7.3007C15.5655 6.40326 16.1026 5.63636 16.7877 5H20.5711ZM7.81953 5C7.02548 6.01165 6.46497 7.00699 6.138 7.98601C5.82661 8.96503 5.67091 9.8951 5.67091 10.7762C6.21585 10.7762 6.76079 10.817 7.30573 10.8986C7.85067 10.9802 8.33333 11.1107 8.75372 11.2902C9.18967 11.4697 9.53999 11.6981 9.80467 11.9755C10.0694 12.2529 10.2017 12.5874 10.2017 12.979V16.5524C10.2017 16.9767 10.0694 17.3438 9.80467 17.6538C9.53999 17.9639 9.18967 18.2168 8.75372 18.4126C8.31776 18.6084 7.82732 18.7552 7.28238 18.8531C6.73744 18.951 6.18471 19 5.6242 19C5.06369 19 4.50318 18.951 3.94268 18.8531C3.39774 18.7552 2.90729 18.6084 2.47134 18.4126C2.03539 18.2168 1.67728 17.9639 1.39703 17.6538C1.13234 17.3438 1 16.9767 1 16.5524V14.4965C1 14.0396 1.02335 13.4114 1.07006 12.6119C1.13234 11.796 1.26469 10.9312 1.46709 10.0175C1.68507 9.10373 1.98868 8.19814 2.37792 7.3007C2.76716 6.40326 3.30432 5.63636 3.98938 5H7.81953Z" fill="#181818"/>
</svg>
