<svg width="20" height="20" viewBox="0 0 20 20" fill="none" xmlns="http://www.w3.org/2000/svg">
<path d="M10.0001 16.6665C8.23197 16.6665 6.53628 15.9641 5.28604 14.7139C4.03579 13.4636 3.33342 11.7679 3.33342 9.99984C3.33342 8.23173 4.03579 6.53604 5.28604 5.28579C6.53628 4.03555 8.23197 3.33317 10.0001 3.33317C11.7682 3.33317 13.4639 4.03555 14.7141 5.28579C15.9644 6.53604 16.6668 8.23173 16.6668 9.99984C16.6668 11.7679 15.9644 13.4636 14.7141 14.7139C13.4639 15.9641 11.7682 16.6665 10.0001 16.6665ZM10.0001 1.6665C8.90573 1.6665 7.8221 1.88205 6.81105 2.30084C5.80001 2.71963 4.88135 3.33346 4.10753 4.10728C2.54472 5.67008 1.66675 7.7897 1.66675 9.99984C1.66675 12.21 2.54472 14.3296 4.10753 15.8924C4.88135 16.6662 5.80001 17.28 6.81105 17.6988C7.8221 18.1176 8.90573 18.3332 10.0001 18.3332C12.2102 18.3332 14.3298 17.4552 15.8926 15.8924C17.4554 14.3296 18.3334 12.21 18.3334 9.99984C18.3334 8.90549 18.1179 7.82186 17.6991 6.81081C17.2803 5.79976 16.6665 4.8811 15.8926 4.10728C15.1188 3.33346 14.2002 2.71963 13.1891 2.30084C12.1781 1.88205 11.0944 1.6665 10.0001 1.6665ZM10.0001 5.83317C8.89501 5.83317 7.83521 6.27216 7.0538 7.05356C6.2724 7.83496 5.83342 8.89477 5.83342 9.99984C5.83342 11.1049 6.2724 12.1647 7.0538 12.9461C7.83521 13.7275 8.89501 14.1665 10.0001 14.1665C11.1052 14.1665 12.165 13.7275 12.9464 12.9461C13.7278 12.1647 14.1668 11.1049 14.1667 9.99984C14.1668 8.89477 13.7278 7.83496 12.9464 7.05356C12.165 6.27216 11.1052 5.83317 10.0001 5.83317Z" fill="#00208F"/>
</svg>
