<svg width="20" height="20" viewBox="0 0 20 20" fill="none" xmlns="http://www.w3.org/2000/svg">
    <g>
        <path d="M13.5251 15L10.0001 12.875L6.47508 15L7.40842 10.9917L4.30008 8.30002L8.40008 7.95002L10.0001 4.16669L11.6001 7.94169L15.7001 8.29169L12.5917 10.9834L13.5251 15ZM10.0001 1.66669C5.39175 1.66669 1.66675 5.41669 1.66675 10C1.66675 12.2102 2.54472 14.3298 4.10752 15.8926C4.88135 16.6664 5.80001 17.2802 6.81105 17.699C7.8221 18.1178 8.90573 18.3334 10.0001 18.3334C12.2102 18.3334 14.3298 17.4554 15.8926 15.8926C17.4554 14.3298 18.3334 12.2102 18.3334 10C18.3334 8.90567 18.1179 7.82204 17.6991 6.81099C17.2803 5.79994 16.6665 4.88129 15.8926 4.10746C15.1188 3.33364 14.2002 2.71981 13.1891 2.30102C12.1781 1.88224 11.0944 1.66669 10.0001 1.66669Z"/>
    </g>
</svg>
